<?xml version="1.0" encoding="UTF-8" standalone="no"?>
<!DOCTYPE svg PUBLIC "-//W3C//DTD SVG 1.1//EN" "http://www.w3.org/Graphics/SVG/1.1/DTD/svg11.dtd">
<svg version="1.1" xmlns:dc="http://purl.org/dc/elements/1.1/" xmlns="http://www.w3.org/2000/svg" xmlns:xl="http://www.w3.org/1999/xlink" viewBox="172 176 1138 692" width="1138" height="692">
  <defs>
    <marker orient="auto" overflow="visible" markerUnits="strokeWidth" id="FilledArrow_Marker" stroke-linejoin="miter" stroke-miterlimit="10" viewBox="-1 -4 10 8" markerWidth="10" markerHeight="8" color="black">
      <g>
        <path d="M 8 0 L 0 -3 L 0 3 Z" fill="currentColor" stroke="currentColor" stroke-width="1"/>
      </g>
    </marker>
  </defs>
  <g id="Canvas_1" stroke-opacity="1" fill="none" fill-opacity="1" stroke="none" stroke-dasharray="none">
    <title>Canvas 1</title>
    <rect fill="white" x="172" y="176" width="1138" height="692"/>
    <g id="Canvas_1_Layer_1">
      <title>Layer 1</title>
      <g id="Line_57">
        <line x1="695.8349" y1="548.5167" x2="926.4797" y2="597.3432" marker-end="url(#FilledArrow_Marker)" stroke="black" stroke-linecap="round" stroke-linejoin="round" stroke-width="1"/>
      </g>
      <g id="Graphic_56">
        <rect x="763.6673" y="559.4338" width="101.856" height="28.447998" fill="#c0c0ff"/>
        <text transform="translate(768.6673 564.4338)" fill="black">
          <tspan font-family="Helvetica Neue" font-size="16" fill="black" x="0" y="15">Cancel order</tspan>
        </text>
      </g>
      <g id="Graphic_4">
        <circle cx="310" cy="379.47896" r="14.7500235690529" fill="black"/>
        <circle cx="310" cy="379.47896" r="14.7500235690529" stroke="black" stroke-linecap="round" stroke-linejoin="round" stroke-width="1"/>
      </g>
      <g id="Graphic_7">
        <path d="M 600.05 179.28035 L 642.95 179.28035 C 657.25 179.28035 664.4 179.28035 672.98 180.54035 C 680.13 181.80035 687.28 184.95035 690.14 188.10035 C 693 191.88035 693 195.03035 693 201.33035 L 693 220.23035 C 693 226.53035 693 229.68035 690.14 233.46035 C 687.28 236.61035 680.13 239.76035 672.98 241.02035 C 664.4 242.28035 657.25 242.28035 642.95 242.28035 L 600.05 242.28035 C 585.75 242.28035 578.6 242.28035 570.02 241.02035 C 562.87 239.76035 555.72 236.61035 552.86 233.46035 C 550 229.68035 550 226.53035 550 220.23035 L 550 201.33035 C 550 195.03035 550 191.88035 552.86 188.10035 C 555.72 184.95035 562.87 181.80035 570.02 180.54035 C 578.6 179.28035 585.75 179.28035 600.05 179.28035 M 600.05 179.28035" fill="white"/>
        <path d="M 600.05 179.28035 L 642.95 179.28035 C 657.25 179.28035 664.4 179.28035 672.98 180.54035 C 680.13 181.80035 687.28 184.95035 690.14 188.10035 C 693 191.88035 693 195.03035 693 201.33035 L 693 220.23035 C 693 226.53035 693 229.68035 690.14 233.46035 C 687.28 236.61035 680.13 239.76035 672.98 241.02035 C 664.4 242.28035 657.25 242.28035 642.95 242.28035 L 600.05 242.28035 C 585.75 242.28035 578.6 242.28035 570.02 241.02035 C 562.87 239.76035 555.72 236.61035 552.86 233.46035 C 550 229.68035 550 226.53035 550 220.23035 L 550 201.33035 C 550 195.03035 550 191.88035 552.86 188.10035 C 555.72 184.95035 562.87 181.80035 570.02 180.54035 C 578.6 179.28035 585.75 179.28035 600.05 179.28035 M 600.05 179.28035" stroke="gray" stroke-linecap="round" stroke-linejoin="round" stroke-width="6"/>
        <text transform="translate(555 201.0483)" fill="black">
          <tspan font-family="Helvetica Neue" font-weight="bold" font-size="16" fill="black" x="48.428" y="16">draft</tspan>
        </text>
      </g>
      <g id="Graphic_8">
        <path d="M 600.05 346.28035 L 642.95 346.28035 C 657.25 346.28035 664.4 346.28035 672.98 347.54035 C 680.13 348.80035 687.28 351.95035 690.14 355.10035 C 693 358.88035 693 362.03035 693 368.33035 L 693 387.23035 C 693 393.53035 693 396.68035 690.14 400.46035 C 687.28 403.61035 680.13 406.76035 672.98 408.02035 C 664.4 409.28035 657.25 409.28035 642.95 409.28035 L 600.05 409.28035 C 585.75 409.28035 578.6 409.28035 570.02 408.02035 C 562.87 406.76035 555.72 403.61035 552.86 400.46035 C 550 396.68035 550 393.53035 550 387.23035 L 550 368.33035 C 550 362.03035 550 358.88035 552.86 355.10035 C 555.72 351.95035 562.87 348.80035 570.02 347.54035 C 578.6 346.28035 585.75 346.28035 600.05 346.28035 M 600.05 346.28035" fill="#ffff80"/>
        <path d="M 600.05 346.28035 L 642.95 346.28035 C 657.25 346.28035 664.4 346.28035 672.98 347.54035 C 680.13 348.80035 687.28 351.95035 690.14 355.10035 C 693 358.88035 693 362.03035 693 368.33035 L 693 387.23035 C 693 393.53035 693 396.68035 690.14 400.46035 C 687.28 403.61035 680.13 406.76035 672.98 408.02035 C 664.4 409.28035 657.25 409.28035 642.95 409.28035 L 600.05 409.28035 C 585.75 409.28035 578.6 409.28035 570.02 408.02035 C 562.87 406.76035 555.72 403.61035 552.86 400.46035 C 550 396.68035 550 393.53035 550 387.23035 L 550 368.33035 C 550 362.03035 550 358.88035 552.86 355.10035 C 555.72 351.95035 562.87 348.80035 570.02 347.54035 C 578.6 346.28035 585.75 346.28035 600.05 346.28035 M 600.05 346.28035" stroke="gray" stroke-linecap="round" stroke-linejoin="round" stroke-width="6"/>
        <text transform="translate(555 358.31624)" fill="black">
          <tspan font-family="Helvetica Neue" font-weight="bold" font-size="16" fill="black" x="18.66" y="16">unsubmitted</tspan>
          <tspan font-family="Helvetica Neue" font-weight="bold" font-size="16" fill="black" x="17.484" y="35.46411">(no timeout*)</tspan>
        </text>
      </g>
      <g id="Line_9">
        <line x1="621.5" y1="245.28035" x2="621.5" y2="333.38035" marker-end="url(#FilledArrow_Marker)" stroke="black" stroke-linecap="round" stroke-linejoin="round" stroke-width="1"/>
      </g>
      <g id="Graphic_10">
        <rect x="576.492" y="282.42024" width="90.016" height="28.447998" fill="#c0c0ff"/>
        <text transform="translate(581.492 287.42024)" fill="black">
          <tspan font-family="Helvetica Neue" font-size="16" fill="black" x="0" y="15">Add to cart</tspan>
        </text>
      </g>
      <g id="Line_11">
        <line x1="322.9735" y1="372.45293" x2="554.4171" y2="247.11034" marker-end="url(#FilledArrow_Marker)" stroke="black" stroke-linecap="round" stroke-linejoin="round" stroke-width="1"/>
      </g>
      <g id="Graphic_12">
        <rect x="370.26427" y="300.6955" width="117.888" height="28.447998" fill="#c0c0ff"/>
        <text transform="translate(375.26428 305.6955)" fill="black">
          <tspan font-family="Helvetica Neue" font-size="16" fill="black" x="0" y="15">Apply template</tspan>
        </text>
      </g>
      <g id="Graphic_13">
        <path d="M 600.05 501.28035 L 642.95 501.28035 C 657.25 501.28035 664.4 501.28035 672.98 502.54035 C 680.13 503.80035 687.28 506.95035 690.14 510.10035 C 693 513.88035 693 517.03035 693 523.33035 L 693 542.23035 C 693 548.53035 693 551.68035 690.14 555.46035 C 687.28 558.61035 680.13 561.76035 672.98 563.02035 C 664.4 564.28035 657.25 564.28035 642.95 564.28035 L 600.05 564.28035 C 585.75 564.28035 578.6 564.28035 570.02 563.02035 C 562.87 561.76035 555.72 558.61035 552.86 555.46035 C 550 551.68035 550 548.53035 550 542.23035 L 550 523.33035 C 550 517.03035 550 513.88035 552.86 510.10035 C 555.72 506.95035 562.87 503.80035 570.02 502.54035 C 578.6 501.28035 585.75 501.28035 600.05 501.28035 M 600.05 501.28035" fill="#ffff80"/>
        <path d="M 600.05 501.28035 L 642.95 501.28035 C 657.25 501.28035 664.4 501.28035 672.98 502.54035 C 680.13 503.80035 687.28 506.95035 690.14 510.10035 C 693 513.88035 693 517.03035 693 523.33035 L 693 542.23035 C 693 548.53035 693 551.68035 690.14 555.46035 C 687.28 558.61035 680.13 561.76035 672.98 563.02035 C 664.4 564.28035 657.25 564.28035 642.95 564.28035 L 600.05 564.28035 C 585.75 564.28035 578.6 564.28035 570.02 563.02035 C 562.87 561.76035 555.72 558.61035 552.86 555.46035 C 550 551.68035 550 548.53035 550 542.23035 L 550 523.33035 C 550 517.03035 550 513.88035 552.86 510.10035 C 555.72 506.95035 562.87 503.80035 570.02 502.54035 C 578.6 501.28035 585.75 501.28035 600.05 501.28035 M 600.05 501.28035" stroke="gray" stroke-linecap="round" stroke-linejoin="round" stroke-width="6"/>
        <text transform="translate(555 523.0483)" fill="black">
          <tspan font-family="Helvetica Neue" font-weight="bold" font-size="16" fill="black" x="28.148" y="16">submitted</tspan>
        </text>
      </g>
      <g id="Line_14">
        <line x1="621.5" y1="412.28035" x2="621.5" y2="488.38035" marker-end="url(#FilledArrow_Marker)" stroke="black" stroke-linecap="round" stroke-linejoin="round" stroke-width="1"/>
      </g>
      <g id="Graphic_15">
        <rect x="569.964" y="432.65575" width="103.072" height="28.447998" fill="#c0c0ff"/>
        <text transform="translate(574.964 437.65575)" fill="black">
          <tspan font-family="Helvetica Neue" font-size="16" fill="black" x="5684342e-20" y="15">Submit order</tspan>
        </text>
      </g>
      <g id="Line_16">
        <line x1="324.7498" y1="379.39853" x2="537.10015" y2="378.2406" marker-end="url(#FilledArrow_Marker)" stroke="black" stroke-linecap="round" stroke-linejoin="round" stroke-width="1"/>
      </g>
      <g id="Graphic_17">
        <rect x="371.37796" y="364.67484" width="90.016" height="28.447998" fill="#c0c0ff"/>
        <text transform="translate(376.37796 369.67484)" fill="black">
          <tspan font-family="Helvetica Neue" font-size="16" fill="black" x="0" y="15">Add to cart</tspan>
        </text>
      </g>
      <g id="Graphic_18">
        <path d="M 597.3599 665.9796 L 640.2599 665.9796 C 654.5599 665.9796 661.7099 665.9796 670.2899 667.2396 C 677.4399 668.4996 684.5899 671.6496 687.4499 674.7996 C 690.3099 678.5796 690.3099 681.7296 690.3099 688.0296 L 690.3099 706.9296 C 690.3099 713.2296 690.3099 716.3796 687.4499 720.1596 C 684.5899 723.3096 677.4399 726.4596 670.2899 727.7196 C 661.7099 728.9796 654.5599 728.9796 640.2599 728.9796 L 597.3599 728.9796 C 583.0599 728.9796 575.9099 728.9796 567.3299 727.7196 C 560.1799 726.4596 553.0299 723.3096 550.1699 720.1596 C 547.3099 716.3796 547.3099 713.2296 547.3099 706.9296 L 547.3099 688.0296 C 547.3099 681.7296 547.3099 678.5796 550.1699 674.7996 C 553.0299 671.6496 560.1799 668.4996 567.3299 667.2396 C 575.9099 665.9796 583.0599 665.9796 597.3599 665.9796 M 597.3599 665.9796" fill="#ffff80"/>
        <path d="M 597.3599 665.9796 L 640.2599 665.9796 C 654.5599 665.9796 661.7099 665.9796 670.2899 667.2396 C 677.4399 668.4996 684.5899 671.6496 687.4499 674.7996 C 690.3099 678.5796 690.3099 681.7296 690.3099 688.0296 L 690.3099 706.9296 C 690.3099 713.2296 690.3099 716.3796 687.4499 720.1596 C 684.5899 723.3096 677.4399 726.4596 670.2899 727.7196 C 661.7099 728.9796 654.5599 728.9796 640.2599 728.9796 L 597.3599 728.9796 C 583.0599 728.9796 575.9099 728.9796 567.3299 727.7196 C 560.1799 726.4596 553.0299 723.3096 550.1699 720.1596 C 547.3099 716.3796 547.3099 713.2296 547.3099 706.9296 L 547.3099 688.0296 C 547.3099 681.7296 547.3099 678.5796 550.1699 674.7996 C 553.0299 671.6496 560.1799 668.4996 567.3299 667.2396 C 575.9099 665.9796 583.0599 665.9796 597.3599 665.9796 M 597.3599 665.9796" stroke="gray" stroke-linecap="round" stroke-linejoin="round" stroke-width="3"/>
        <text transform="translate(552.3099 687.7475)" fill="black">
          <tspan font-family="Helvetica Neue" font-weight="bold" font-size="16" fill="black" x="30.636" y="16">approved</tspan>
        </text>
      </g>
      <g id="Line_19">
        <line x1="320.2758" y1="390.0606" x2="579.8978" y2="657.4094" marker-end="url(#FilledArrow_Marker)" stroke="black" stroke-linecap="round" stroke-linejoin="round" stroke-width="1"/>
      </g>
      <g id="Graphic_20">
        <rect x="369.61473" y="495.5803" width="133.888" height="28.447998" fill="#ffc0ff"/>
        <text transform="translate(374.61473 500.5803)" fill="black">
          <tspan font-family="Helvetica Neue" font-size="16" fill="black" x="0" y="15">Add to hand over</tspan>
        </text>
      </g>
      <g id="Line_21">
        <line x1="620.9365" y1="567.28035" x2="619.5106" y2="654.5809" marker-end="url(#FilledArrow_Marker)" stroke="black" stroke-linecap="round" stroke-linejoin="round" stroke-width="1"/>
      </g>
      <g id="Graphic_22">
        <rect x="564.1694" y="592.67475" width="112.24" height="28.447998" fill="#ffc0ff"/>
        <text transform="translate(569.1694 597.67475)" fill="black">
          <tspan font-family="Helvetica Neue" font-size="16" fill="black" x="7958079e-19" y="15">Approve order</tspan>
        </text>
      </g>
      <g id="Graphic_23">
        <text transform="translate(252 369.67147)" fill="black">
          <tspan font-family="Helvetica Neue" font-size="16" fill="black" x="0" y="15">start</tspan>
        </text>
      </g>
      <g id="Graphic_24">
        <path d="M 916.05 501.28035 L 958.95 501.28035 C 973.25 501.28035 980.4 501.28035 988.98 502.54035 C 996.13 503.80035 1003.28 506.95035 1006.14 510.10035 C 1009 513.88035 1009 517.03035 1009 523.33035 L 1009 542.23035 C 1009 548.53035 1009 551.68035 1006.14 555.46035 C 1003.28 558.61035 996.13 561.76035 988.98 563.02035 C 980.4 564.28035 973.25 564.28035 958.95 564.28035 L 916.05 564.28035 C 901.75 564.28035 894.6 564.28035 886.02 563.02035 C 878.87 561.76035 871.72 558.61035 868.86 555.46035 C 866 551.68035 866 548.53035 866 542.23035 L 866 523.33035 C 866 517.03035 866 513.88035 868.86 510.10035 C 871.72 506.95035 878.87 503.80035 886.02 502.54035 C 894.6 501.28035 901.75 501.28035 916.05 501.28035 M 916.05 501.28035" fill="white"/>
        <path d="M 916.05 501.28035 L 958.95 501.28035 C 973.25 501.28035 980.4 501.28035 988.98 502.54035 C 996.13 503.80035 1003.28 506.95035 1006.14 510.10035 C 1009 513.88035 1009 517.03035 1009 523.33035 L 1009 542.23035 C 1009 548.53035 1009 551.68035 1006.14 555.46035 C 1003.28 558.61035 996.13 561.76035 988.98 563.02035 C 980.4 564.28035 973.25 564.28035 958.95 564.28035 L 916.05 564.28035 C 901.75 564.28035 894.6 564.28035 886.02 563.02035 C 878.87 561.76035 871.72 558.61035 868.86 555.46035 C 866 551.68035 866 548.53035 866 542.23035 L 866 523.33035 C 866 517.03035 866 513.88035 868.86 510.10035 C 871.72 506.95035 878.87 503.80035 886.02 502.54035 C 894.6 501.28035 901.75 501.28035 916.05 501.28035 M 916.05 501.28035" stroke="gray" stroke-linecap="round" stroke-linejoin="round" stroke-width="6"/>
        <text transform="translate(871 523.0483)" fill="black">
          <tspan font-family="Helvetica Neue" font-weight="bold" font-size="16" fill="black" x="35.236" y="16">rejected</tspan>
        </text>
      </g>
      <g id="Line_25">
        <line x1="696" y1="532.78035" x2="853.1" y2="532.78035" marker-end="url(#FilledArrow_Marker)" stroke="black" stroke-linecap="round" stroke-linejoin="round" stroke-width="1"/>
      </g>
      <g id="Graphic_26">
        <rect x="729.8199" y="518.55635" width="97.408" height="28.447998" fill="#ffc0ff"/>
        <text transform="translate(734.8199 523.55635)" fill="black">
          <tspan font-family="Helvetica Neue" font-size="16" fill="black" x="0" y="15">Reject order</tspan>
        </text>
      </g>
      <g id="Graphic_27">
        <path d="M 913.3599 665.9796 L 956.2599 665.9796 C 970.5599 665.9796 977.7099 665.9796 986.2899 667.2396 C 993.4399 668.4996 1000.5899 671.6496 1003.4499 674.7996 C 1006.3099 678.5796 1006.3099 681.7296 1006.3099 688.0296 L 1006.3099 706.9296 C 1006.3099 713.2296 1006.3099 716.3796 1003.4499 720.1596 C 1000.5899 723.3096 993.4399 726.4596 986.2899 727.7196 C 977.7099 728.9796 970.5599 728.9796 956.2599 728.9796 L 913.3599 728.9796 C 899.0599 728.9796 891.9099 728.9796 883.3299 727.7196 C 876.1799 726.4596 869.0299 723.3096 866.1699 720.1596 C 863.3099 716.3796 863.3099 713.2296 863.3099 706.9296 L 863.3099 688.0296 C 863.3099 681.7296 863.3099 678.5796 866.1699 674.7996 C 869.0299 671.6496 876.1799 668.4996 883.3299 667.2396 C 891.9099 665.9796 899.0599 665.9796 913.3599 665.9796 M 913.3599 665.9796" fill="#ffff80"/>
        <path d="M 913.3599 665.9796 L 956.2599 665.9796 C 970.5599 665.9796 977.7099 665.9796 986.2899 667.2396 C 993.4399 668.4996 1000.5899 671.6496 1003.4499 674.7996 C 1006.3099 678.5796 1006.3099 681.7296 1006.3099 688.0296 L 1006.3099 706.9296 C 1006.3099 713.2296 1006.3099 716.3796 1003.4499 720.1596 C 1000.5899 723.3096 993.4399 726.4596 986.2899 727.7196 C 977.7099 728.9796 970.5599 728.9796 956.2599 728.9796 L 913.3599 728.9796 C 899.0599 728.9796 891.9099 728.9796 883.3299 727.7196 C 876.1799 726.4596 869.0299 723.3096 866.1699 720.1596 C 863.3099 716.3796 863.3099 713.2296 863.3099 706.9296 L 863.3099 688.0296 C 863.3099 681.7296 863.3099 678.5796 866.1699 674.7996 C 869.0299 671.6496 876.1799 668.4996 883.3299 667.2396 C 891.9099 665.9796 899.0599 665.9796 913.3599 665.9796 M 913.3599 665.9796" stroke="gray" stroke-linecap="round" stroke-linejoin="round" stroke-width="3"/>
        <text transform="translate(868.3099 687.7475)" fill="black">
          <tspan font-family="Helvetica Neue" font-weight="bold" font-size="16" fill="black" x="41.028" y="16">signed</tspan>
        </text>
      </g>
      <g id="Line_30">
        <line x1="691.8099" y1="697.4796" x2="851.9099" y2="697.4796" marker-end="url(#FilledArrow_Marker)" stroke="black" stroke-linecap="round" stroke-linejoin="round" stroke-width="1"/>
      </g>
      <g id="Graphic_31">
        <rect x="735.4192" y="683.2556" width="84.08" height="28.447998" fill="#ffc0ff"/>
        <text transform="translate(740.4192 688.2556)" fill="black">
          <tspan font-family="Helvetica Neue" font-size="16" fill="black" x="8668621e-19" y="15">Hand over</tspan>
        </text>
      </g>
      <g id="Graphic_32">
        <path d="M 1215.3599 665.9796 L 1258.2599 665.9796 C 1272.5599 665.9796 1279.7099 665.9796 1288.2899 667.2396 C 1295.4399 668.4996 1302.5899 671.6496 1305.4499 674.7996 C 1308.3099 678.5796 1308.3099 681.7296 1308.3099 688.0296 L 1308.3099 706.9296 C 1308.3099 713.2296 1308.3099 716.3796 1305.4499 720.1596 C 1302.5899 723.3096 1295.4399 726.4596 1288.2899 727.7196 C 1279.7099 728.9796 1272.5599 728.9796 1258.2599 728.9796 L 1215.3599 728.9796 C 1201.0599 728.9796 1193.9099 728.9796 1185.3299 727.7196 C 1178.1799 726.4596 1171.0299 723.3096 1168.1699 720.1596 C 1165.3099 716.3796 1165.3099 713.2296 1165.3099 706.9296 L 1165.3099 688.0296 C 1165.3099 681.7296 1165.3099 678.5796 1168.1699 674.7996 C 1171.0299 671.6496 1178.1799 668.4996 1185.3299 667.2396 C 1193.9099 665.9796 1201.0599 665.9796 1215.3599 665.9796 M 1215.3599 665.9796" fill="white"/>
        <path d="M 1215.3599 665.9796 L 1258.2599 665.9796 C 1272.5599 665.9796 1279.7099 665.9796 1288.2899 667.2396 C 1295.4399 668.4996 1302.5899 671.6496 1305.4499 674.7996 C 1308.3099 678.5796 1308.3099 681.7296 1308.3099 688.0296 L 1308.3099 706.9296 C 1308.3099 713.2296 1308.3099 716.3796 1305.4499 720.1596 C 1302.5899 723.3096 1295.4399 726.4596 1288.2899 727.7196 C 1279.7099 728.9796 1272.5599 728.9796 1258.2599 728.9796 L 1215.3599 728.9796 C 1201.0599 728.9796 1193.9099 728.9796 1185.3299 727.7196 C 1178.1799 726.4596 1171.0299 723.3096 1168.1699 720.1596 C 1165.3099 716.3796 1165.3099 713.2296 1165.3099 706.9296 L 1165.3099 688.0296 C 1165.3099 681.7296 1165.3099 678.5796 1168.1699 674.7996 C 1171.0299 671.6496 1178.1799 668.4996 1185.3299 667.2396 C 1193.9099 665.9796 1201.0599 665.9796 1215.3599 665.9796 M 1215.3599 665.9796" stroke="gray" stroke-linecap="round" stroke-linejoin="round" stroke-width="3"/>
        <text transform="translate(1170.3099 687.7475)" fill="black">
          <tspan font-family="Helvetica Neue" font-weight="bold" font-size="16" fill="black" x="41.18" y="16">closed</tspan>
        </text>
      </g>
      <g id="Line_33">
        <line x1="1007.8099" y1="697.4796" x2="1153.9099" y2="697.4796" marker-end="url(#FilledArrow_Marker)" stroke="black" stroke-linecap="round" stroke-linejoin="round" stroke-width="1"/>
      </g>
      <g id="Graphic_34">
        <rect x="1041.3991" y="683.2556" width="82.32" height="28.447998" fill="#ffc0ff"/>
        <text transform="translate(1046.3991 688.2556)" fill="black">
          <tspan font-family="Helvetica Neue" font-size="16" fill="black" x="0" y="15">Take back</tspan>
        </text>
      </g>
      <g id="Graphic_36">
        <ellipse cx="939.25" cy="374.94944" rx="21.0000335559396" ry="21.1402086948701" fill="white"/>
        <ellipse cx="939.25" cy="374.94944" rx="21.0000335559396" ry="21.1402086948701" stroke="black" stroke-linecap="round" stroke-linejoin="round" stroke-width="1"/>
      </g>
      <g id="Graphic_35">
        <circle cx="939.25" cy="374.94944" r="14.750023569053" fill="black"/>
        <circle cx="939.25" cy="374.94944" r="14.750023569053" stroke="black" stroke-linecap="round" stroke-linejoin="round" stroke-width="1"/>
      </g>
      <g id="Line_37">
        <line x1="681.56835" y1="241.81533" x2="911.7665" y2="360.7498" marker-end="url(#FilledArrow_Marker)" stroke="black" stroke-linecap="round" stroke-linejoin="round" stroke-width="1"/>
      </g>
      <g id="Line_38">
        <line x1="690" y1="378.5696" x2="908.3507" y2="381.0854" marker-end="url(#FilledArrow_Marker)" stroke="black" stroke-linecap="round" stroke-linejoin="round" stroke-width="1"/>
      </g>
      <g id="Line_40">
        <line x1="937.8825" y1="498.28035" x2="938.9059" y2="405.9877" marker-end="url(#FilledArrow_Marker)" stroke="black" stroke-linecap="round" stroke-linejoin="round" stroke-width="1"/>
      </g>
      <g id="Graphic_42">
        <rect x="786.0773" y="365.77306" width="55.632" height="28.447998" fill="#c0c0ff"/>
        <text transform="translate(791.0773 370.77306)" fill="black">
          <tspan font-family="Helvetica Neue" font-size="16" fill="black" x="71409545e-20" y="15">Delete</tspan>
        </text>
      </g>
      <g id="Graphic_43">
        <rect x="779.96645" y="292.80126" width="55.632" height="28.447998" fill="#c0c0ff"/>
        <text transform="translate(784.96645 297.80126)" fill="black">
          <tspan font-family="Helvetica Neue" font-size="16" fill="black" x="71409545e-20" y="15">Delete</tspan>
        </text>
      </g>
      <g id="Line_44">
        <line x1="682.94035" y1="502.26206" x2="911.5462" y2="388.71033" marker-end="url(#FilledArrow_Marker)" stroke="black" stroke-linecap="round" stroke-linejoin="round" stroke-width="1"/>
      </g>
      <g id="Graphic_45">
        <rect x="762.9859" y="434.4617" width="55.632" height="28.447998" fill="#ffc0ff"/>
        <text transform="translate(767.9859 439.4617)" fill="black">
          <tspan font-family="Helvetica Neue" font-size="16" fill="black" x="71409545e-20" y="15">Delete</tspan>
        </text>
      </g>
      <g id="Line_47">
        <line x1="690.3099" y1="673.6992" x2="923.5549" y2="401.7437" marker-end="url(#FilledArrow_Marker)" stroke="black" stroke-linecap="round" stroke-linejoin="round" stroke-width="1"/>
      </g>
      <g id="Line_46">
        <line x1="1209.044" y1="667.48796" x2="960.7256" y2="399.2647" marker-end="url(#FilledArrow_Marker)" stroke="black" stroke-linecap="round" stroke-linejoin="round" stroke-width="1"/>
      </g>
      <g id="Graphic_48">
        <rect x="842.0945" y="450.0672" width="55.632" height="28.447998" fill="#ffc0ff"/>
        <text transform="translate(847.0945 455.0672)" fill="black">
          <tspan font-family="Helvetica Neue" font-size="16" fill="black" x="71409545e-20" y="15">Delete</tspan>
        </text>
      </g>
      <g id="Graphic_49">
        <text transform="translate(969.5 365.72544)" fill="black">
          <tspan font-family="Helvetica Neue" font-size="16" fill="black" x="0" y="15">end</tspan>
        </text>
      </g>
      <g id="Graphic_50">
        <text transform="translate(177.11693 196.44435)" fill="black">
          <tspan font-family="Helvetica Neue" font-size="24" fill="black" x="3126388e-19" y="23">Reservation’s state transitions</tspan>
        </text>
      </g>
      <g id="Graphic_51">
        <rect x="295.25" y="801.9796" width="61.824" height="28.447998" fill="#c0c0ff"/>
        <text transform="translate(300.25 806.9796)" fill="black">
          <tspan font-family="Helvetica Neue" font-size="16" fill="black" x="2557954e-19" y="15">Borrow</tspan>
        </text>
      </g>
      <g id="Graphic_52">
        <rect x="295.25" y="836.5316" width="67.504" height="28.447998" fill="#ffc0ff"/>
        <text transform="translate(300.25 841.5316)" fill="black">
          <tspan font-family="Helvetica Neue" font-size="16" fill="black" x="40500936e-20" y="15">Lending</tspan>
        </text>
      </g>
      <g id="Graphic_53">
        <path d="M 430.74194 801.9796 L 473.64194 801.9796 C 487.94194 801.9796 495.09194 801.9796 503.67194 803.2396 C 510.82194 804.4996 517.97194 807.6496 520.83194 810.7996 C 523.69194 814.5796 523.69194 817.7296 523.69194 824.0296 L 523.69194 842.9296 C 523.69194 849.2296 523.69194 852.3796 520.83194 856.1596 C 517.97194 859.3096 510.82194 862.4596 503.67194 863.7196 C 495.09194 864.9796 487.94194 864.9796 473.64194 864.9796 L 430.74194 864.9796 C 416.44194 864.9796 409.29194 864.9796 400.71194 863.7196 C 393.56194 862.4596 386.41194 859.3096 383.55194 856.1596 C 380.69194 852.3796 380.69194 849.2296 380.69194 842.9296 L 380.69194 824.0296 C 380.69194 817.7296 380.69194 814.5796 383.55194 810.7996 C 386.41194 807.6496 393.56194 804.4996 400.71194 803.2396 C 409.29194 801.9796 416.44194 801.9796 430.74194 801.9796 M 430.74194 801.9796" fill="#ffff80"/>
        <path d="M 430.74194 801.9796 L 473.64194 801.9796 C 487.94194 801.9796 495.09194 801.9796 503.67194 803.2396 C 510.82194 804.4996 517.97194 807.6496 520.83194 810.7996 C 523.69194 814.5796 523.69194 817.7296 523.69194 824.0296 L 523.69194 842.9296 C 523.69194 849.2296 523.69194 852.3796 520.83194 856.1596 C 517.97194 859.3096 510.82194 862.4596 503.67194 863.7196 C 495.09194 864.9796 487.94194 864.9796 473.64194 864.9796 L 430.74194 864.9796 C 416.44194 864.9796 409.29194 864.9796 400.71194 863.7196 C 393.56194 862.4596 386.41194 859.3096 383.55194 856.1596 C 380.69194 852.3796 380.69194 849.2296 380.69194 842.9296 L 380.69194 824.0296 C 380.69194 817.7296 380.69194 814.5796 383.55194 810.7996 C 386.41194 807.6496 393.56194 804.4996 400.71194 803.2396 C 409.29194 801.9796 416.44194 801.9796 430.74194 801.9796 M 430.74194 801.9796" stroke="gray" stroke-linecap="round" stroke-linejoin="round" stroke-width="3"/>
        <text transform="translate(385.69194 814.0155)" fill="black">
          <tspan font-family="Helvetica Neue" font-weight="bold" font-size="16" fill="black" x="24.892" y="16">included in </tspan>
          <tspan font-family="Helvetica Neue" font-weight="bold" font-size="16" fill="black" x="16.172" y="35.46411">availability (*)</tspan>
        </text>
      </g>
      <g id="Graphic_54">
        <path d="M 597.3599 801.9796 L 640.2599 801.9796 C 654.5599 801.9796 661.7099 801.9796 670.2899 803.2396 C 677.4399 804.4996 684.5899 807.6496 687.4499 810.7996 C 690.3099 814.5796 690.3099 817.7296 690.3099 824.0296 L 690.3099 842.9296 C 690.3099 849.2296 690.3099 852.3796 687.4499 856.1596 C 684.5899 859.3096 677.4399 862.4596 670.2899 863.7196 C 661.7099 864.9796 654.5599 864.9796 640.2599 864.9796 L 597.3599 864.9796 C 583.0599 864.9796 575.9099 864.9796 567.3299 863.7196 C 560.1799 862.4596 553.0299 859.3096 550.1699 856.1596 C 547.3099 852.3796 547.3099 849.2296 547.3099 842.9296 L 547.3099 824.0296 C 547.3099 817.7296 547.3099 814.5796 550.1699 810.7996 C 553.0299 807.6496 560.1799 804.4996 567.3299 803.2396 C 575.9099 801.9796 583.0599 801.9796 597.3599 801.9796 M 597.3599 801.9796" fill="white"/>
        <path d="M 597.3599 801.9796 L 640.2599 801.9796 C 654.5599 801.9796 661.7099 801.9796 670.2899 803.2396 C 677.4399 804.4996 684.5899 807.6496 687.4499 810.7996 C 690.3099 814.5796 690.3099 817.7296 690.3099 824.0296 L 690.3099 842.9296 C 690.3099 849.2296 690.3099 852.3796 687.4499 856.1596 C 684.5899 859.3096 677.4399 862.4596 670.2899 863.7196 C 661.7099 864.9796 654.5599 864.9796 640.2599 864.9796 L 597.3599 864.9796 C 583.0599 864.9796 575.9099 864.9796 567.3299 863.7196 C 560.1799 862.4596 553.0299 859.3096 550.1699 856.1596 C 547.3099 852.3796 547.3099 849.2296 547.3099 842.9296 L 547.3099 824.0296 C 547.3099 817.7296 547.3099 814.5796 550.1699 810.7996 C 553.0299 807.6496 560.1799 804.4996 567.3299 803.2396 C 575.9099 801.9796 583.0599 801.9796 597.3599 801.9796 M 597.3599 801.9796" stroke="gray" stroke-linecap="round" stroke-linejoin="round" stroke-width="6"/>
        <text transform="translate(552.3099 823.7475)" fill="black">
          <tspan font-family="Helvetica Neue" font-weight="bold" font-size="16" fill="black" x="27.412" y="16">only items</tspan>
        </text>
      </g>
      <g id="Graphic_55">
        <path d="M 989.05 583.62996 L 1031.95 583.62996 C 1046.25 583.62996 1053.4 583.62996 1061.98 584.88996 C 1069.13 586.14996 1076.28 589.29996 1079.14 592.44996 C 1082 596.22996 1082 599.37996 1082 605.67996 L 1082 624.57996 C 1082 630.87996 1082 634.02996 1079.14 637.80996 C 1076.28 640.95996 1069.13 644.10996 1061.98 645.36996 C 1053.4 646.62996 1046.25 646.62996 1031.95 646.62996 L 989.05 646.62996 C 974.75 646.62996 967.6 646.62996 959.02 645.36996 C 951.87 644.10996 944.72 640.95996 941.86 637.80996 C 939 634.02996 939 630.87996 939 624.57996 L 939 605.67996 C 939 599.37996 939 596.22996 941.86 592.44996 C 944.72 589.29996 951.87 586.14996 959.02 584.88996 C 967.6 583.62996 974.75 583.62996 989.05 583.62996 M 989.05 583.62996" fill="white"/>
        <path d="M 989.05 583.62996 L 1031.95 583.62996 C 1046.25 583.62996 1053.4 583.62996 1061.98 584.88996 C 1069.13 586.14996 1076.28 589.29996 1079.14 592.44996 C 1082 596.22996 1082 599.37996 1082 605.67996 L 1082 624.57996 C 1082 630.87996 1082 634.02996 1079.14 637.80996 C 1076.28 640.95996 1069.13 644.10996 1061.98 645.36996 C 1053.4 646.62996 1046.25 646.62996 1031.95 646.62996 L 989.05 646.62996 C 974.75 646.62996 967.6 646.62996 959.02 645.36996 C 951.87 644.10996 944.72 640.95996 941.86 637.80996 C 939 634.02996 939 630.87996 939 624.57996 L 939 605.67996 C 939 599.37996 939 596.22996 941.86 592.44996 C 944.72 589.29996 951.87 586.14996 959.02 584.88996 C 967.6 583.62996 974.75 583.62996 989.05 583.62996 M 989.05 583.62996" stroke="gray" stroke-linecap="round" stroke-linejoin="round" stroke-width="6"/>
        <text transform="translate(944 605.3979)" fill="black">
          <tspan font-family="Helvetica Neue" font-weight="bold" font-size="16" fill="black" x="31.844" y="16">canceled</tspan>
        </text>
      </g>
      <g id="Line_58">
        <line x1="1002.0663" y1="586.62996" x2="942.3092" y2="384.6925" marker-end="url(#FilledArrow_Marker)" stroke="black" stroke-linecap="round" stroke-linejoin="round" stroke-width="1"/>
      </g>
    </g>
  </g>
</svg>
